<?xml version="1.0" encoding="utf-8"?>
<!-- Generator: Adobe Illustrator 26.3.0, SVG Export Plug-In . SVG Version: 6.00 Build 0)  -->
<svg version="1.1" id="Layer_1" xmlns="http://www.w3.org/2000/svg" xmlns:xlink="http://www.w3.org/1999/xlink" x="0px" y="0px"
	 viewBox="0 0 75 75.9" style="enable-background:new 0 0 75 75.9;" xml:space="preserve">
<style type="text/css">
	.st0{opacity:0.15;fill:#2F42FF;}
	.st1{fill:#2F42FF;}
</style>
<rect x="-0.5" y="-0.1" class="st0" width="76" height="76"/>
<g>
	<path class="st1" d="M56.6,28.5c-0.5,0.1-1,0.1-1.5,0.2c0,0.6-0.1,1.1-0.1,1.8H20c0-0.6-0.1-1.2-0.1-1.8c-0.5-0.1-0.9-0.1-1.5-0.2
		c0-0.8-0.1-1.6,0-2.4c0-0.3,0.4-0.6,0.7-0.8c5.9-2.8,11.7-5.5,17.6-8.2c0.4-0.2,1-0.2,1.3,0c5.9,2.7,11.8,5.5,17.7,8.2
		c0.3,0.2,0.6,0.7,0.7,1.1C56.7,27,56.6,27.7,56.6,28.5z"/>
	<path class="st1" d="M56.4,55.2v2.8h-38v-2.8c0.5,0,0.9-0.1,1.4-0.1c0.1-0.6,0.1-1.2,0.2-1.9H55c0.1,0.6,0.1,1.2,0.2,1.9
		C55.6,55.1,56,55.1,56.4,55.2z"/>
	<path class="st1" d="M53.4,48.9v3.2h-8.3v-3.2c0.4-0.1,0.8-0.2,1.3-0.3V34c-0.4-0.1-0.8-0.2-1.3-0.2V32h8.2v1.7
		c-0.4,0.1-0.8,0.2-1.3,0.3v14.7C52.5,48.7,52.9,48.8,53.4,48.9z"/>
	<path class="st1" d="M29.8,48.9v3.2h-8.3v-3.2c0.4-0.1,0.8-0.2,1.3-0.3V33.9c-0.4-0.1-0.8-0.1-1.3-0.2V32h8.2v1.7
		c-0.4,0.1-0.8,0.2-1.3,0.2v14.7C29,48.8,29.4,48.8,29.8,48.9z"/>
	<path class="st1" d="M41.6,48.9v3.2h-8.2v-3.2c0.4-0.1,0.8-0.1,1.3-0.2V33.9c-0.5-0.1-0.9-0.1-1.3-0.2V32h8.2v1.7
		c-0.4,0.1-0.8,0.2-1.3,0.2v14.7C40.7,48.8,41.1,48.8,41.6,48.9z"/>
</g>
</svg>
