<svg id="Isolation_Mode" data-name="Isolation Mode" xmlns="http://www.w3.org/2000/svg" viewBox="0 0 53.39 53.39"><defs><style>.cls-1{fill:#4154f1;}.cls-2{fill:#fff;}</style></defs><circle class="cls-1" cx="26.7" cy="26.7" r="26.7"/><path class="cls-2" d="M44.58,38.08H39L33.13,30.6H29.45v7.48H24.37V15.31H35.18c5.5,0,8.42,3.67,8.42,7.68,0,3-.91,5.59-5.27,7.15l6.25,7.55ZM29.45,19.67V26.3h5.79a3.15,3.15,0,0,0,3.35-3.18,3.34,3.34,0,0,0-3.41-3.45Z"/><path class="cls-2" d="M24.37,29.79l0-6.84V15.31h5.11V38.08H24.37L13.76,23.51,14,31v7.09H8.81V15.31h4.36Z"/></svg>