<?xml version="1.0" encoding="utf-8"?>
<!-- Generator: Adobe Illustrator 26.3.0, SVG Export Plug-In . SVG Version: 6.00 Build 0)  -->
<svg version="1.1" id="Layer_1" xmlns="http://www.w3.org/2000/svg" xmlns:xlink="http://www.w3.org/1999/xlink" x="0px" y="0px"
	 viewBox="0 0 75 75.9" style="enable-background:new 0 0 75 75.9;" xml:space="preserve">
<style type="text/css">
	.st0{opacity:0.15;fill:#2F42FF;}
	.st1{fill:#2F42FF;}
</style>
<rect x="-0.5" y="-0.1" class="st0" width="76" height="76"/>
<g>
	<path class="st1" d="M36.8,57.4c-0.1,0-0.2,0-0.3,0c-4.8,0-9.5,0-14.3,0c-0.3,0-0.3-0.1-0.3-0.4c0-5.2,0-10.5,0-15.7
		c0-0.1,0-0.2,0-0.3c5,0,9.9,0,14.9,0C36.8,46.5,36.8,51.9,36.8,57.4z"/>
	<path class="st1" d="M39.1,41c5,0,9.9,0,14.9,0c0,5.5,0,10.9,0,16.4c-5,0-9.9,0-14.9,0C39.1,52,39.1,46.5,39.1,41z"/>
	<path class="st1" d="M19.7,38.8c0-3.2,0-6.4,0-9.6c5.7,0,11.5,0,17.2,0c0,3.2,0,6.4,0,9.6C31.1,38.8,25.4,38.8,19.7,38.8z"/>
	<path class="st1" d="M39.1,29.1c5.7,0,11.4,0,17.1,0c0,0.1,0,0.2,0,0.3c0,3,0,6.1,0,9.1c0,0.3-0.1,0.3-0.3,0.3c-5.5,0-11,0-16.5,0
		c-0.1,0-0.2,0-0.3,0C39.1,35.6,39.1,32.4,39.1,29.1z"/>
	<path class="st1" d="M15.1,30.4c0.3-0.8,0.5-1.6,0.8-2.4c0.9-2.1,2.6-3.3,4.8-3.8c1.2-0.3,2.3-0.2,3.5-0.1c2.4,0.1,4.6,0.8,6.8,1.6
		c2,0.7,4,1.5,5.9,2.6c0,0,0.1,0,0.2,0c-0.1-0.1-0.3-0.2-0.4-0.3c-2.4-1.6-4.6-3.3-6.7-5.4c-1.1-1.1-2.1-2.3-2.8-3.7
		c-0.4-0.8-0.6-1.7-0.5-2.7c0-0.2,0.1-0.5,0.2-0.7c0.8-1.4,1.9-2.3,3.6-2.5c0.9-0.1,1.7,0.2,2.4,0.8c1,0.8,1.6,1.9,2.2,3.1
		c0.9,1.8,1.5,3.8,2,5.7c0.2,0.9,0.4,1.8,0.6,2.7c0,0.1,0,0.2,0,0.3c0-0.1-0.1-0.3-0.1-0.4c-0.5-1.8-1-3.6-1.8-5.3
		c-0.5-1.1-1.2-2.2-2.1-3.1c-1.2-1.1-2.7-1.3-4-0.4c-0.9,0.6-1.3,1.4-1,2.4c0.3,1.1,0.9,2,1.6,2.8c2.1,2.4,4.4,4.5,7,6.4
		c0.4,0.3,0.8,0.6,1.1,0.9c-0.3-0.1-0.6-0.2-0.9-0.3c-3.2-0.9-6.5-1.6-9.8-1.9c-2.6-0.2-5.2-0.1-7.7,0.7c-1.6,0.5-3.1,1.3-4.3,2.6
		c-0.1,0.1-0.3,0.2-0.4,0.4C15.2,30.4,15.2,30.4,15.1,30.4z"/>
	<path class="st1" d="M38.9,28.7c0.2-0.3,0.5-0.5,0.7-0.8c1.4-1.5,2.7-3.1,3.8-4.9c0.5-0.8,0.9-1.7,1.1-2.7c0.3-1.9-1.5-3.3-3.2-2.7
		c-0.7,0.2-1.1,0.8-1.4,1.4c-0.6,1.1-0.9,2.2-1.1,3.4c-0.2,1.4-0.3,2.8-0.4,4.3c0,0.2,0,0.3-0.1,0.5c0-0.1,0-0.1,0-0.2
		c-0.1-2-0.2-4,0.1-6.1c0.1-1.1,0.4-2.2,0.8-3.3c0.3-0.6,0.6-1.1,1.1-1.5c0.5-0.4,1.1-0.6,1.8-0.6c0.9,0.1,1.7,0.4,2.4,0.8
		c1.3,0.8,1.8,2,1.5,3.4c-0.2,1.1-0.7,2-1.3,2.9c-1,1.4-2.2,2.7-3.4,3.9c-0.2,0.2-0.4,0.4-0.5,0.6c0.1-0.1,0.2-0.2,0.4-0.3
		c2.3-1.6,4.6-3,7.2-4c1.4-0.6,2.9-1,4.4-1c2.9-0.1,5,1.2,6.3,3.8c0.4,0.8,0.6,1.6,0.9,2.4c0,0.1,0,0.1,0,0.2
		c-0.2-0.2-0.3-0.5-0.5-0.7c-1.8-2.5-4.3-3.6-7.2-3.5c-2.3,0-4.5,0.6-6.7,1.4c-2.2,0.8-4.2,1.9-6.2,3C39.2,28.7,39.1,28.7,38.9,28.7
		C38.9,28.8,38.9,28.8,38.9,28.7z"/>
</g>
</svg>
