<?xml version="1.0" encoding="utf-8"?>
<!-- Generator: Adobe Illustrator 26.3.0, SVG Export Plug-In . SVG Version: 6.00 Build 0)  -->
<svg version="1.1" id="Layer_1" xmlns="http://www.w3.org/2000/svg" xmlns:xlink="http://www.w3.org/1999/xlink" x="0px" y="0px"
	 viewBox="0 0 75 75.9" style="enable-background:new 0 0 75 75.9;" xml:space="preserve">
<style type="text/css">
	.st0{opacity:0.15;fill:#2F42FF;}
	.st1{fill:#2F42FF;}
</style>
<rect x="-0.5" y="-0.1" class="st0" width="76" height="76"/>
<g>
	<path class="st1" d="M36.7,23.6c5.7,0,11.3,0,17,0c0.9,0,1.9,0.1,2.7,0.3c1.6,0.4,2.4,1.5,2.1,3.1c-0.3,1.5-1.3,2.1-2.8,2.1
		c-3.1,0-6.3,0-9.5,0c-3.3,0-4.2,0.9-4,4.2c0.4,6.5,2.1,12.8,3.2,19.2c0.3,2,0.7,4,1.1,6c0.4,2-0.3,3.5-2.2,3.7
		c-1.9,0.2-3.1-0.8-3.4-2.8c-0.7-4.2-1.5-8.4-2.2-12.6c-0.1-0.5-0.1-0.9-0.3-1.4c-0.3-1-0.2-2.5-1.7-2.5c-1.5,0-1.8,1.4-2,2.6
		c-0.8,4-1.5,8-2.2,12c-0.1,0.7-0.3,1.5-0.4,2.2c-0.3,1.9-1.5,2.8-3.3,2.5c-1.8-0.4-2.4-1.8-2.1-3.6c1-5.1,1.9-10.2,2.9-15.3
		c0.6-3.5,1.5-6.9,1.5-10.4c0-2.6-1.1-3.8-3.7-3.7c-3.1,0-6.1,0-9.2,0c-1.9,0-3.4-0.4-3.4-2.6c0-2.1,1.6-2.9,3.4-2.9
		C24.2,23.6,30.5,23.6,36.7,23.6C36.7,23.6,36.7,23.6,36.7,23.6z"/>
	<path class="st1" d="M36.5,11.3c3.1,0,5.6,2.4,5.6,5.3c0,2.9-2.5,5.3-5.6,5.3c-3.1,0-5.6-2.4-5.6-5.3
		C30.9,13.6,33.4,11.3,36.5,11.3z M36.5,20.2c2,0,3.6-1.4,3.7-3.4c0.1-2.1-1.5-3.8-3.5-3.8c-2.2,0-3.5,1.2-3.6,3.4
		C32.8,18.5,34.4,20.1,36.5,20.2z"/>
</g>
</svg>
