<svg id="Layer_1" data-name="Layer 1" xmlns="http://www.w3.org/2000/svg" viewBox="0 0 189.2 53.39"><defs><style>.cls-1{fill:#4154f1;}.cls-2{fill:#fff;}</style></defs><circle class="cls-1" cx="26.7" cy="26.7" r="26.7"/><path class="cls-2" d="M44.58,38.08H39L33.13,30.6H29.45v7.48H24.37V15.31H35.18c5.5,0,8.42,3.67,8.42,7.68,0,3-.91,5.59-5.27,7.15l6.25,7.55ZM29.45,19.67V26.3h5.79a3.15,3.15,0,0,0,3.35-3.18,3.34,3.34,0,0,0-3.41-3.45Z"/><path class="cls-2" d="M24.37,29.79l0-6.84V15.31h5.11V38.08H24.37L13.76,23.51,14,31v7.09H8.81V15.31h4.36Z"/><path class="cls-1" d="M67.28,7.83,75.16,18c0-.55-.09-1.82-.16-3.81V7.83h5.29V26.45H75.82l-7.76-10,.08,4.07v6H62.82V7.83Z"/><path class="cls-1" d="M101,26.13v.32h-5.8l-4.34-6H89v6H83.73V7.83h9.1a7.32,7.32,0,0,1,5.32,1.86,6.12,6.12,0,0,1,1.91,4.55,6,6,0,0,1-.86,3.26,6.71,6.71,0,0,1-3.08,2.35ZM92.83,12H89V16.5h3.89a1.83,1.83,0,0,0,1.49-.62,2.35,2.35,0,0,0,.5-1.53,2.54,2.54,0,0,0-.53-1.64A1.81,1.81,0,0,0,92.83,12Z"/><path class="cls-1" d="M108.23,26.45H103V7.83h5.24Z"/><path class="cls-1" d="M75.62,44.65H72l-3.77-4.83H65.85v4.83H62.57V29.94h7c3.55,0,5.44,2.37,5.44,5,0,1.91-.59,3.61-3.4,4.62l4,4.88Zm-9.77-11.9V37h3.74A2,2,0,0,0,71.75,35a2.16,2.16,0,0,0-2.2-2.23Z"/><path class="cls-1" d="M79.27,40.45c.14,1,1.11,1.83,2.81,1.83a4.31,4.31,0,0,0,2.69-.82l1.71,1.89A6.54,6.54,0,0,1,82,44.89c-3.76,0-5.82-2.21-5.82-5.53A5.13,5.13,0,0,1,81.7,34c3.54,0,5.85,2.21,5.2,6.46Zm4.92-2.21c-.07-1.13-1.22-1.66-2.49-1.66a2.36,2.36,0,0,0-2.43,1.66Z"/><path class="cls-1" d="M88.75,49.24v-15h2.71l.19,1.32A4,4,0,0,1,95.1,34.1c3.05,0,5.13,2.14,5.13,5.38s-2.12,5.41-5.17,5.41a4.12,4.12,0,0,1-3.26-1.48v5.83Zm8.43-9.76a2.47,2.47,0,0,0-2.54-2.67,2.54,2.54,0,0,0-2.8,2.67,2.66,2.66,0,0,0,2.8,2.67A2.47,2.47,0,0,0,97.18,39.48Z"/><path class="cls-1" d="M110.08,34.27h2.84V44.65h-2.74l-.17-1.3a4,4,0,0,1-3.19,1.54,5.05,5.05,0,0,1-5.36-5.43A5.1,5.1,0,0,1,106.9,34,3.48,3.48,0,0,1,110,35.47Zm-5.6,5.19a2.6,2.6,0,0,0,2.74,2.73,2.74,2.74,0,1,0,0-5.48A2.62,2.62,0,0,0,104.48,39.46Z"/><path class="cls-1" d="M119.44,31.43v2.9h2.63v2.52h-2.65v3.91c0,1.1.61,1.39,1.17,1.39a3.3,3.3,0,0,0,1.27-.25l.69,2.52a6.55,6.55,0,0,1-2.19.47c-2.25.1-4-.89-4-4.13V36.85h-1.85V34.33h1.85V31.77Z"/><path class="cls-1" d="M126.78,34.29l.23,1.13A3.2,3.2,0,0,1,129.78,34a3.67,3.67,0,0,1,2.55.94l-1.26,2.4a2.74,2.74,0,0,0-1.66-.53,2.29,2.29,0,0,0-2.42,2.4v5.4h-3V34.29Z"/><path class="cls-1" d="M136.58,31.51a1.73,1.73,0,0,1-3.45,0A1.73,1.73,0,0,1,136.58,31.51Zm-3.24,2.74v10.4h3V34.25Z"/><path class="cls-1" d="M146.8,34.27h2.84V44.65H146.9l-.16-1.3a4.06,4.06,0,0,1-3.2,1.54,5.05,5.05,0,0,1-5.36-5.43A5.1,5.1,0,0,1,143.62,34a3.48,3.48,0,0,1,3.07,1.43Zm-5.59,5.19a2.6,2.6,0,0,0,2.73,2.73,2.74,2.74,0,1,0,0-5.48A2.62,2.62,0,0,0,141.21,39.46Z"/><path class="cls-1" d="M156.16,31.43v2.9h2.63v2.52h-2.65v3.91c0,1.1.61,1.39,1.18,1.39a3.29,3.29,0,0,0,1.26-.25l.69,2.52a6.45,6.45,0,0,1-2.18.47c-2.25.1-4-.89-4-4.13V36.85h-1.85V34.33h1.85V31.77Z"/><path class="cls-1" d="M163.92,31.51a1.73,1.73,0,0,1-3.45,0A1.73,1.73,0,0,1,163.92,31.51Zm-3.24,2.74v10.4h3V34.25Z"/><path class="cls-1" d="M165.5,39.48A5.31,5.31,0,0,1,171.18,34c3.47,0,5.7,2.31,5.7,5.44s-2.17,5.41-5.7,5.41S165.5,42.61,165.5,39.48Zm8.31,0a2.62,2.62,0,1,0-5.24,0,2.62,2.62,0,1,0,5.24,0Z"/><path class="cls-1" d="M186.15,44.65V39.17c0-1.6-.69-2.42-2.14-2.42a2.41,2.41,0,0,0-2.36,2.54v5.36h-3V34.27h2.73l.1,1.32A3.94,3.94,0,0,1,184.87,34c2.33,0,4.33,1.1,4.33,5.14v5.5Z"/></svg>