<svg id="Layer_1" data-name="Layer 1" xmlns="http://www.w3.org/2000/svg" viewBox="0 0 221.04 62.37"><defs><style>.cls-1{fill:#fff;}.cls-2{fill:#2f42ff;}</style></defs><circle class="cls-1" cx="31.19" cy="31.19" r="31.19"/><path class="cls-2" d="M52.08,44.49H45.51L38.7,35.75H34.41v8.74H28.48V17.88H41.1c6.42,0,9.84,4.3,9.84,9,0,3.46-1.06,6.54-6.16,8.37L52.08,44ZM34.41,23v7.75h6.76A3.69,3.69,0,0,0,45.09,27a3.91,3.91,0,0,0-4-4Z"/><path class="cls-2" d="M28.47,34.8l0-8V17.88h6V44.49H28.47l-12.4-17,.23,8.75v8.28h-6V17.88h5.1Z"/><path class="cls-1" d="M78.61,9.15l9.2,11.9c0-.64-.11-2.12-.19-4.44V9.15h6.19V30.9H88.58L79.51,19.19l.09,4.75v7H73.38V9.15Z"/><path class="cls-1" d="M118,30.53v.37h-6.78l-5.07-7H104v7H97.82V9.15h10.63a8.53,8.53,0,0,1,6.21,2.17,7.14,7.14,0,0,1,2.24,5.32,7,7,0,0,1-1,3.81,7.92,7.92,0,0,1-3.59,2.75Zm-9.51-16.47H104v5.22h4.54a2.11,2.11,0,0,0,1.74-.73,2.77,2.77,0,0,0,.59-1.79,3,3,0,0,0-.62-1.91A2.13,2.13,0,0,0,108.45,14.06Z"/><path class="cls-1" d="M126.44,30.9h-6.12V9.15h6.12Z"/><path class="cls-1" d="M88.35,52.17H84.1l-4.4-5.65H76.93v5.65H73.09V35h8.16c4.15,0,6.36,2.78,6.36,5.8,0,2.24-.68,4.23-4,5.4l4.72,5.7ZM76.93,38.26v5H81.3a2.39,2.39,0,0,0,2.53-2.41,2.53,2.53,0,0,0-2.58-2.61Z"/><path class="cls-1" d="M92.6,47.26c.18,1.17,1.31,2.13,3.3,2.13a5,5,0,0,0,3.14-1l2,2.22a7.64,7.64,0,0,1-5.21,1.79c-4.4,0-6.8-2.58-6.8-6.46,0-3.69,2.48-6.27,6.43-6.27,4.13,0,6.83,2.58,6.07,7.55Zm5.75-2.58c-.07-1.33-1.42-1.94-2.9-1.94a2.77,2.77,0,0,0-2.85,1.94Z"/><path class="cls-1" d="M103.69,57.52V40.06h3.17l.22,1.55a4.61,4.61,0,0,1,4-1.77c3.56,0,6,2.5,6,6.29s-2.48,6.31-6,6.31a4.81,4.81,0,0,1-3.81-1.72v6.8Zm9.85-11.39a2.88,2.88,0,0,0-3-3.12,3,3,0,0,0-3.27,3.12,3.1,3.1,0,0,0,3.27,3.12A2.9,2.9,0,0,0,113.54,46.13Z"/><path class="cls-1" d="M128.6,40h3.32V52.17h-3.2l-.19-1.52a4.69,4.69,0,0,1-3.74,1.79c-3.63,0-6.26-2.33-6.26-6.34a6,6,0,0,1,6.36-6.34,4.11,4.11,0,0,1,3.59,1.67Zm-6.53,6.07a3,3,0,0,0,3.19,3.19,3.21,3.21,0,1,0,0-6.41A3.06,3.06,0,0,0,122.07,46.1Z"/><path class="cls-1" d="M138,40.06l.27,1.32a3.73,3.73,0,0,1,3.25-1.62,4.27,4.27,0,0,1,3,1.11L143,43.67a3.19,3.19,0,0,0-1.94-.62,2.68,2.68,0,0,0-2.82,2.81v6.31h-3.54V40.06Z"/><path class="cls-1" d="M150.49,36.72v3.39h3.08v2.94h-3.1v4.57c0,1.28.71,1.63,1.38,1.63a3.79,3.79,0,0,0,1.47-.3l.81,2.95a7.65,7.65,0,0,1-2.55.54c-2.63.12-4.62-1-4.62-4.82V43.05H144.8V40.11H147v-3Z"/><path class="cls-1" d="M159.56,36.81a2,2,0,0,1-4,0A2,2,0,0,1,159.56,36.81ZM155.78,40V52.17h3.54V40Z"/><path class="cls-1" d="M171.5,40h3.32V52.17h-3.19l-.2-1.52a4.68,4.68,0,0,1-3.73,1.79c-3.64,0-6.27-2.33-6.27-6.34a6,6,0,0,1,6.36-6.34,4.1,4.1,0,0,1,3.59,1.67ZM165,46.1a3,3,0,0,0,3.19,3.19,3.21,3.21,0,1,0,0-6.41A3.06,3.06,0,0,0,165,46.1Z"/><path class="cls-1" d="M182.44,36.72v3.39h3.07v2.94h-3.1v4.57c0,1.28.72,1.63,1.38,1.63a3.75,3.75,0,0,0,1.47-.3l.81,2.95a7.6,7.6,0,0,1-2.55.54c-2.63.12-4.62-1-4.62-4.82V43.05h-2.16V40.11h2.16v-3Z"/><path class="cls-1" d="M191.51,36.81a2,2,0,0,1-4,0A2,2,0,0,1,191.51,36.81ZM187.72,40V52.17h3.54V40Z"/><path class="cls-1" d="M193.35,46.13c0-3.67,2.6-6.37,6.63-6.37s6.66,2.7,6.66,6.37-2.53,6.31-6.66,6.31S193.35,49.79,193.35,46.13Zm9.7,0a3.06,3.06,0,1,0-6.11,0,3.06,3.06,0,1,0,6.11,0Z"/><path class="cls-1" d="M217.48,52.17V45.76c0-1.87-.81-2.83-2.51-2.83a2.82,2.82,0,0,0-2.75,3v6.27h-3.49V40h3.2l.12,1.55A4.55,4.55,0,0,1,216,39.74c2.73,0,5.06,1.28,5.06,6v6.44Z"/></svg>