<?xml version="1.0" encoding="utf-8"?>
<!-- Generator: Adobe Illustrator 26.3.0, SVG Export Plug-In . SVG Version: 6.00 Build 0)  -->
<svg version="1.1" id="Layer_1" xmlns="http://www.w3.org/2000/svg" xmlns:xlink="http://www.w3.org/1999/xlink" x="0px" y="0px"
	 viewBox="0 0 76 76" style="enable-background:new 0 0 76 76;" xml:space="preserve">
<style type="text/css">
	.st0{fill:#E0E3FF;}
	.st1{fill:none;}
	.st2{fill:#2F42FF;}
</style>
<rect class="st0" width="76" height="76"/>
<polyline class="st1" points="342,275 341.7,252.7 339.4,101.5 339,74 "/>
<g>
	<path class="st2" d="M25.8,37.7c-0.5,0.9-1.2,1.5-2.2,2.1c-1,0.5-2.2,0.8-3.6,0.8h-2.7v6.3h-4.2V29.2H20c1.4,0,2.6,0.3,3.6,0.8
		c1,0.5,1.7,1.2,2.2,2.1s0.8,1.8,0.8,3C26.4,35.9,26.2,36.8,25.8,37.7z M21.5,36.6c0.4-0.4,0.6-0.9,0.6-1.7c0-0.6-0.3-1.3-0.6-1.7
		c-0.4-0.4-1-0.5-1.8-0.5h-2.3v4.4h2.3C20.5,37.1,21,37,21.5,36.6z"/>
	<path class="st2" d="M39.7,43.8h-6.6l-1,3.1h-4.5L34,29.2h5l6.4,17.6H41L39.7,43.8z M38.5,40.4L36.3,34l-2.2,6.4H38.5z"/>
	<path class="st2" d="M62.9,46.9h-4.2l-7.2-10.9v10.9h-4.2V29.2h4.2l7.2,10.9V29.2h4.2V46.9z"/>
</g>
</svg>
