<?xml version="1.0" encoding="utf-8"?>
<!-- Generator: Adobe Illustrator 26.3.0, SVG Export Plug-In . SVG Version: 6.00 Build 0)  -->
<svg version="1.1" id="Layer_1" xmlns="http://www.w3.org/2000/svg" xmlns:xlink="http://www.w3.org/1999/xlink" x="0px" y="0px"
	 viewBox="0 0 76 76" style="enable-background:new 0 0 76 76;" xml:space="preserve">
<style type="text/css">
	.st0{fill:#E0E3FF;}
	.st1{fill:none;}
	.st2{fill:#2F42FF;}
</style>
<rect y="0" class="st0" width="76" height="76"/>
<path class="st0" d="M28.4,29.7c-0.4-0.6-0.8-1.3-1.1-2.1c-0.5-1.3,0.1-2.1,1.5-2c0.2,0,0.4,0,0.7,0c-0.2-1.2-0.3-2.2-0.5-3.3
	c-0.1-0.4,0.1-0.6,0.5-0.8c2.4-0.9,4.8-0.8,7.3-0.3c2,0.5,4,1,6,1.4c1.4,0.2,2.8,0.2,4.3,0.3c-0.2,0.9-0.5,1.9-0.8,3.1
	c0.5,0,1,0,1.4,0c1,0,1.2,0.3,0.9,1.2c-0.2,0.7-0.5,1.3-0.8,1.9c-1.2,1.8-2.4,3.6-3.6,5.3c-0.7,1-1.5,1.9-2.4,2.6
	c-2.4,1.9-5.8,1.7-8-0.4c-0.8-0.7-1.5-1.6-2.1-2.5C30.5,32.7,29.5,31.2,28.4,29.7z"/>
<path class="st0" d="M44.8,40.9c-1.3,2.4-3.3,3.8-5.9,4c-3.3,0.2-5.9-1.1-7.6-4c-0.2-0.3-0.2-0.5,0-0.7c0.5-0.9,0.9-1.9,1.3-2.9
	c3.3,2.8,6.7,2.9,10.3,0.6c0.7,0.8,1.3,1.6,1.9,2.5C44.9,40.5,44.9,40.8,44.8,40.9z"/>
<polyline class="st1" points="342,275 341.7,252.7 339.4,101.5 339,74 "/>
<g>
	<path class="st2" d="M7,25.8L7,25.8C7,25.8,7,25.8,7,25.8C7,25.8,7,25.8,7,25.8z M7,25.8L7,25.8C7,25.8,7,25.8,7,25.8
		C7,25.8,7,25.8,7,25.8z M62.8,43.1c-0.4-0.9-1.1-1.6-1.9-2.3c0-0.1,0.1-0.2,0.1-0.3c0.5-0.7,0.5-1.6,0.3-2.4
		c-1.7-6.5-3.4-13-5.2-19.5c-0.4-1.7-0.9-3.3-1.3-5C54.3,11.7,53,11,51,11.5c-7.9,2.1-15.8,4.2-23.8,6.3c-5.9,1.6-11.8,3.1-17.7,4.7
		c-0.5,0.1-0.9,0.5-1.2,0.9c-0.9,1.2-1.2,2.7-0.9,4.2c0.2,0.6,0.3,1.2,0.5,1.9c1.9,7.2,3.8,14.4,5.7,21.6c0.4,1.7,1.9,2.5,3.6,2
		c4.7-1.2,9.3-2.5,14-3.7c0.2-0.1,0.5-0.1,0.7-0.2v0.6c0,2.3,0.1,4.6,0,6.8c-0.1,2.6,1.1,4.3,3.2,5.5c1.9,1.1,4,1.7,6.1,2.1
		c3.3,0.6,6.6,0.7,9.9,0.4c2.3-0.3,4.6-0.7,6.8-1.6c1.6-0.6,3.1-1.4,4.1-2.8c0.4-0.5,0.6-1.1,0.9-1.6L62.8,43.1z M7,25.8
		C7,25.8,7,25.8,7,25.8C7,25.8,7,25.8,7,25.8L7,25.8z M23.6,40.7c-2.8,0.7-5.6,1.5-8.4,2.2c0.2,0.9,0.5,1.7,0.7,2.6
		c2.8-0.7,5.6-1.5,8.4-2.2C24.1,42.4,23.8,41.6,23.6,40.7z M60.2,48c-0.3,0.8-0.8,1.4-1.5,1.8c-0.9,0.5-1.7,1-2.6,1.4
		c-3.4,1.2-6.9,1.5-10.5,1.3c-2.5-0.1-5-0.6-7.3-1.5c-1.1-0.5-2.2-1-2.9-2c-0.2-0.3-0.3-0.5-0.5-0.8c-0.1,1-0.1,2-0.1,2.9
		c0,0.7,0.3,1.3,0.7,1.8c1.1,1.2,2.6,1.8,4.1,2.3c4.5,1.3,9.1,1.4,13.7,0.5c1.9-0.4,3.7-0.9,5.3-2c0.8-0.6,1.5-1.2,1.6-2.3
		C60.3,50.2,60.2,49.1,60.2,48z M60.2,53.9c-0.3,0.9-0.8,1.5-1.4,2c-1.1,0.9-2.5,1.4-3.8,1.8c-3.4,0.9-6.8,1.1-10.3,0.8
		c-2.2-0.2-4.5-0.6-6.5-1.5c-1.4-0.6-2.6-1.3-3.4-2.8c0,1,0,1.9,0,2.9c0,0.8,0.3,1.4,0.8,1.9c1.1,1.2,2.6,1.8,4.1,2.3
		c4.4,1.3,9,1.4,13.5,0.6c1.9-0.3,3.8-0.9,5.4-2c0.8-0.5,1.5-1.1,1.6-2.1C60.3,56.5,60.2,55.3,60.2,53.9z M35,40.1
		c-0.2-0.7-0.4-1.5-0.6-2.3c0,0,0,0-0.1,0c-1.1,0.3-2.2,0.6-3.3,0.9c-0.9,0.2-1.8,0.5-2.7,0.7c-0.8,0.2-1.6,0.4-2.4,0.6
		c0.2,0.9,0.4,1.7,0.7,2.6c0.1,0,0.2,0,0.2,0c2.5-0.7,4.9-1.3,7.4-2c0.1,0,0.2-0.1,0.4-0.2c0.1,0,0.2-0.1,0.2-0.1
		C34.9,40.3,35,40.2,35,40.1z M59.5,43c-1.1-1.2-2.6-1.8-4.1-2.2c-2.5-0.8-5.1-1-7.7-1.1c-2.7,0-5.5,0.2-8.1,1.1
		c-1.5,0.5-3,1-4.1,2.2c-1,1.1-1,2.2,0,3.3c0.8,0.9,1.9,1.4,3,1.9c2.9,1.1,5.9,1.4,8.9,1.4c2.7,0,5.3-0.3,7.9-1.1
		c1.5-0.5,3-1.1,4.2-2.3C60.5,45.3,60.5,44.1,59.5,43z M45.2,35c-2.8,0.7-5.6,1.5-8.4,2.2c0.2,0.7,0.3,1.3,0.5,1.9
		c2.8-1,5.6-1.5,8.6-1.6C45.7,36.7,45.5,35.9,45.2,35z M56,32.2c-2.8,0.7-5.6,1.5-8.4,2.2c0.2,0.9,0.4,1.7,0.7,2.6
		c2.8-0.8,5.6-1.5,8.4-2.2C56.5,33.9,56.3,33,56,32.2z M51.1,15.6c-4.4,1.2-8.8,2.3-13.2,3.5c0.4,1.7,0.9,3.3,1.3,5
		c4.4-1.2,8.8-2.3,13.2-3.5C52,18.9,51.6,17.2,51.1,15.6z"/>
	<path class="st0" d="M47.5,49.7c-3,0-6-0.4-8.9-1.4c-1.1-0.4-2.2-1-3-1.9c-1-1.1-1-2.2,0-3.3c1.1-1.2,2.6-1.8,4.1-2.2
		c2.6-0.8,5.3-1.1,8.1-1.1c2.6,0,5.2,0.3,7.7,1.1c1.5,0.5,3,1,4.1,2.2c1,1,1,2.2,0,3.3c-1.1,1.2-2.6,1.8-4.2,2.3
		C52.8,49.4,50.2,49.7,47.5,49.7z"/>
	<path class="st0" d="M34.8,54.1c0.7,1.5,2,2.2,3.4,2.8c2.1,0.9,4.3,1.3,6.5,1.5c3.5,0.3,6.9,0.1,10.3-0.8c1.4-0.4,2.7-0.9,3.8-1.8
		c0.6-0.5,1.1-1,1.4-2c0,1.4,0.1,2.6,0,3.8c-0.1,1-0.9,1.6-1.6,2.1c-1.7,1.1-3.5,1.6-5.4,2c-4.5,0.8-9,0.7-13.5-0.6
		c-1.5-0.4-3-1-4.1-2.3c-0.5-0.5-0.8-1.2-0.8-1.9C34.8,56,34.8,55.1,34.8,54.1z"/>
	<path class="st0" d="M60.2,48c0,1.1,0,2.2,0,3.3c0,1.1-0.8,1.7-1.6,2.3c-1.6,1.1-3.4,1.6-5.3,2c-4.6,0.9-9.2,0.8-13.7-0.5
		c-1.5-0.4-3-1.1-4.1-2.3c-0.5-0.5-0.7-1.1-0.7-1.8c0-1,0-1.9,0.1-2.9c0.2,0.3,0.3,0.6,0.5,0.8c0.7,1,1.8,1.6,2.9,2
		c2.3,1,4.8,1.4,7.3,1.5c3.6,0.2,7.1,0,10.5-1.3c0.9-0.3,1.8-0.8,2.6-1.4C59.4,49.4,59.9,48.8,60.2,48z"/>
	<path class="st0" d="M39.3,24c-0.4-1.7-0.9-3.3-1.3-5c4.4-1.2,8.7-2.3,13.2-3.5c0.4,1.7,0.9,3.3,1.3,5C48.1,21.7,43.7,22.9,39.3,24
		z"/>
	<path class="st0" d="M48.3,37c-0.2-0.9-0.5-1.7-0.7-2.6c2.8-0.7,5.6-1.5,8.4-2.2c0.2,0.9,0.5,1.7,0.7,2.6
		C53.9,35.5,51.2,36.3,48.3,37z"/>
	<path class="st0" d="M23.6,40.7c0.2,0.9,0.5,1.7,0.7,2.6c-2.8,0.7-5.6,1.5-8.4,2.2c-0.2-0.9-0.5-1.7-0.7-2.6
		C18,42.2,20.8,41.5,23.6,40.7z"/>
	<path class="st0" d="M26.7,42.7c-0.2-0.9-0.4-1.7-0.7-2.6c2.8-0.7,5.6-1.5,8.4-2.2c0.2,0.8,0.4,1.5,0.6,2.3c0,0.1-0.1,0.2-0.1,0.3
		c-0.2,0.1-0.4,0.2-0.6,0.3c-2.5,0.7-4.9,1.3-7.4,2C26.8,42.7,26.8,42.7,26.7,42.7z"/>
	<path class="st0" d="M45.2,35c0.2,0.9,0.4,1.7,0.7,2.5c-2.9,0.2-5.8,0.6-8.6,1.6c-0.2-0.7-0.3-1.3-0.5-1.9
		C39.6,36.5,42.4,35.8,45.2,35z"/>
</g>
</svg>
