<?xml version="1.0" encoding="utf-8"?>
<!-- Generator: Adobe Illustrator 26.3.0, SVG Export Plug-In . SVG Version: 6.00 Build 0)  -->
<svg version="1.1" id="Layer_1" xmlns="http://www.w3.org/2000/svg" xmlns:xlink="http://www.w3.org/1999/xlink" x="0px" y="0px"
	 viewBox="0 0 75 75.9" style="enable-background:new 0 0 75 75.9;" xml:space="preserve">
<style type="text/css">
	.st0{opacity:0.15;fill:#2F42FF;}
	.st1{fill:#2F42FF;}
</style>
<rect x="-0.5" y="-0.1" class="st0" width="76" height="76"/>
<path class="st1" d="M61.5,37.7c-1.7,0-3.4,0.1-5.1,0c-1.3-0.1-1.7,0.3-1.7,1.7c0.1,6.4,0,12.7,0.1,19.1c0,1.3-0.3,1.8-1.7,1.7
	c-2.7-0.1-5.3-0.1-8,0c-1.4,0.1-1.7-0.5-1.7-1.8c0.1-3.9,0-7.8,0.1-11.8c0-1.1-0.3-1.5-1.5-1.5c-2.8,0.1-5.6,0.1-8.4,0
	c-1.1,0-1.5,0.4-1.4,1.5c0.1,4,0,8,0,11.9c0,1.2-0.4,1.6-1.6,1.6c-2.8-0.1-5.7-0.1-8.5,0c-1.2,0-1.5-0.5-1.5-1.6
	c0-6.4,0-12.8,0-19.3c0-1.3-0.3-1.7-1.6-1.6c-1.7,0.1-3.4,0-5.5,0c1.6-1.5,2.9-2.7,4.2-3.9C24,28,30.3,22.2,36.6,16.3
	c0.9-0.9,1.5-0.9,2.4,0c7.2,6.7,14.3,13.3,21.5,19.9C60.8,36.6,61.3,36.9,61.5,37.7z"/>
</svg>
