<?xml version="1.0" encoding="utf-8"?>
<!-- Generator: Adobe Illustrator 26.3.0, SVG Export Plug-In . SVG Version: 6.00 Build 0)  -->
<svg version="1.1" id="Layer_1" xmlns="http://www.w3.org/2000/svg" xmlns:xlink="http://www.w3.org/1999/xlink" x="0px" y="0px"
	 viewBox="0 0 75 75.9" style="enable-background:new 0 0 75 75.9;" xml:space="preserve">
<style type="text/css">
	.st0{opacity:0.15;fill:#2F42FF;}
	.st1{fill:#2F42FF;}
</style>
<rect x="-0.5" y="-0.1" class="st0" width="76" height="76"/>
<g>
	<path class="st1" d="M18.2,51.2c1.6,0.1,3.2,0.2,4.4-1.3c0.8-1,0.9-2.1,0.8-3.3c-0.1-1.3-0.6-2.4-1.7-2.9c-1.1-0.4-2.3-0.5-3.5-0.8
		c0-0.5,0-1.1,0-1.9c1.7,0.1,3.3,0.1,4.5-1.4c0.8-1,0.8-2.1,0.7-3.3c-0.1-1.3-0.7-2.4-1.8-2.9c-1-0.4-2.2-0.5-3.5-0.7
		c0-0.5,0-1.2,0-2c0.5,0,1,0,1.5,0c2.4,0,3.8-1.4,3.8-3.8c0-0.5,0-1-0.1-1.5c-0.4-1.6-1.7-2.7-3.5-2.7c-0.6,0-1.1,0-1.7,0
		c0-1.7-0.1-3.3,0-4.9c0.2-1.8,1.5-2.7,3.3-2.7c9.4,0,18.9,0,28.3,0c0.3,0,0.7,0,1-0.1c1.4-0.2,3.5,0.6,4.2,1.8
		c0.7,1.2,0.8,2.6,0,3.8c-2.8,4.4-5.6,8.7-8.4,13c-1,1.6-2.1,3.1-3.1,4.7c-1.3,2.1-1.8,4.4-2.2,6.8c-0.4,2.7-1,5.3-1.4,8
		c0,0.2,0.1,0.6,0.2,0.7c0.3,0.1,0.7,0.2,0.9,0.1c0.9-0.4,1.8-0.9,2.7-1.4c2.1-1,4.2-2,6.2-3.1c0.8-0.4,1.5-1,2.1-1.7
		c1.1-1.4,2.1-2.9,3.2-4.6c0,0.4,0,0.7,0,0.9c0,3,0,6.1,0,9.1c0,1,0,2.1-0.2,3.1c-0.3,1.5-1.5,2.3-3,2.3c-10.2,0-20.5,0-30.7,0
		c-1.9,0-2.8-0.6-3.1-2.6C18,54.6,18.2,52.9,18.2,51.2z M36.8,26.4C36.8,26.4,36.8,26.5,36.8,26.4c2.3,0,4.5,0,6.8,0
		c0.3,0,0.6,0,0.9-0.1c0.8-0.2,1.3-0.9,1.3-1.8c0-0.9-0.5-1.5-1.4-1.6c-0.5-0.1-0.9-0.1-1.4-0.1c-4.3,0-8.6,0-12.9,0
		c-0.6,0-1.3,0.1-1.7,0.6c-0.5,0.6-0.6,1.3-0.3,2c0.3,0.8,0.9,1,1.7,1C32.1,26.5,34.5,26.4,36.8,26.4z M34,35.9
		C34,35.9,34,35.9,34,35.9c1.4,0,2.9,0,4.3,0c1.3,0,2.1-0.7,2-1.9c0-1-0.8-1.7-2.1-1.7c-2.8,0-5.7,0-8.5,0c-1.2,0-1.9,0.7-1.9,1.8
		c0,1.1,0.7,1.7,1.9,1.8C31.3,35.9,32.7,35.9,34,35.9z"/>
	<path class="st1" d="M55.2,24.5c2.4,1.6,4.6,3.1,7,4.6c-3.8,5.5-7.5,10.9-11.3,16.4c-2.1-1.4-4.2-2.7-6.4-4.1
		C48.1,35.8,51.6,30.2,55.2,24.5z"/>
	<path class="st1" d="M56.2,23.1c0.6-0.8,1.1-1.6,1.8-2.2c0.8-0.7,1.9-0.7,2.9-0.1c1.1,0.7,2.2,1.5,3.2,2.4c0.6,0.6,0.5,1.5,0.3,2.2
		c-0.1,0.4-0.3,0.8-0.5,1.1c-0.6,0.9-0.8,0.9-1.7,0.3c-1.7-1.1-3.5-2.2-5.2-3.2C56.7,23.5,56.5,23.3,56.2,23.1z"/>
	<path class="st1" d="M43.4,43c2.3,1.4,4.4,2.6,6.7,4c-1.7,1.1-3.4,2.1-5,3.1c-0.4,0.3-0.9,0.6-1.3,0.7c-0.4,0.1-0.9,0.3-1.1,0.1
		c-0.2-0.2-0.4-0.7-0.3-1.1c0.2-1.3,0.4-2.6,0.7-3.9C43.1,45.1,43.3,44.1,43.4,43z"/>
	<path class="st1" d="M18.2,35c0.6,0,1.1,0,1.7,0c1.3,0.1,1.8,0.8,1.8,2.3c0,1.2-0.7,2.1-1.8,2.1c-1.2,0.1-2.3,0-3.5,0
		c-1.1,0-1.8-0.9-1.8-2.1c0-1.4,0.6-2.3,1.8-2.3C17,35,17.6,35,18.2,35z"/>
	<path class="st1" d="M18.1,49.6c-0.6,0-1.1,0-1.7,0c-1,0-1.8-0.7-1.9-1.6c-0.1-0.5,0-1,0-1.5c0.1-0.8,0.7-1.3,1.6-1.3
		c1.3,0,2.5,0,3.8,0c0.2,0,0.4,0,0.6,0.1c0.9,0.4,1.3,1.4,1.1,2.8c-0.1,0.8-0.9,1.5-1.8,1.6C19.3,49.7,18.7,49.6,18.1,49.6
		C18.1,49.6,18.1,49.6,18.1,49.6z"/>
	<path class="st1" d="M18.1,29.1c-0.6,0-1.2,0-1.8,0c-1.1-0.1-1.8-0.9-1.8-2.2c0-1.3,0.6-2.2,1.7-2.3c1.2-0.1,2.3-0.1,3.5,0
		c1.3,0.1,1.9,1,1.9,2.5c0,1.2-0.8,1.9-2,1.9C19.1,29.1,18.6,29.1,18.1,29.1C18.1,29.1,18.1,29.1,18.1,29.1z"/>
</g>
</svg>
