<?xml version="1.0" encoding="utf-8"?>
<!-- Generator: Adobe Illustrator 26.3.0, SVG Export Plug-In . SVG Version: 6.00 Build 0)  -->
<svg version="1.1" id="Layer_1" xmlns="http://www.w3.org/2000/svg" xmlns:xlink="http://www.w3.org/1999/xlink" x="0px" y="0px"
	 viewBox="0 0 75 75.9" style="enable-background:new 0 0 75 75.9;" xml:space="preserve">
<style type="text/css">
	.st0{opacity:0.15;fill:#2F42FF;}
	.st1{fill:#2F42FF;}
</style>
<rect x="-0.5" y="-0.1" class="st0" width="76" height="76"/>
<g>
	<path class="st1" d="M37.2,41.4C32,41.3,26.9,40.3,22.1,38c-2.6-1.3-5-3-6.6-5.5c-2.2-3.4-2-7.4,0.6-10.6c2.2-2.7,5.2-4.4,8.4-5.7
		c3.8-1.5,7.8-2.1,11.9-2.2c4.5-0.2,8.9,0.4,13.2,1.9c3.3,1.1,6.3,2.7,8.8,5.2c1.5,1.5,2.5,3.2,2.9,5.4c0.3,2.1-0.1,4.1-1.2,5.9
		c-1.2,2-2.9,3.5-4.8,4.7c-3.2,2-6.8,3.2-10.6,3.8C42.2,41.3,39.7,41.4,37.2,41.4z M38.6,15.9c-4.5,0-7.9,0.5-11.3,1.6
		c-2.9,1-5.5,2.4-7.6,4.6c-2.8,3-3.1,6.7-0.8,9.9c1.1,1.5,2.5,2.7,4,3.6c2.7,1.7,5.7,2.7,8.9,3.2c6.1,1,12,0.6,17.8-1.7
		c2.5-1,4.8-2.4,6.6-4.6c2.3-2.9,2.4-6.2,0.4-9.2c-1.4-2.1-3.5-3.5-5.8-4.7C46.6,16.7,42.2,15.9,38.6,15.9z"/>
	<path class="st1" d="M14.1,50c0.6,0.6,1.2,1.2,1.7,1.7c2.6,2.4,5.8,3.9,9.1,5.1c4,1.3,8.1,2,12.3,2c5.4,0.1,10.6-0.7,15.6-2.8
		c3.1-1.3,5.9-3,8.2-5.5c0.1-0.1,0.2-0.2,0.3-0.3c-0.1,1.3-0.5,2.3-1.1,3.3c-1.6,2.8-4.2,4.7-7.1,6.1c-4.4,2.2-9.1,3.1-14,3.2
		c-4.5,0.1-8.9-0.4-13.2-1.8c-3.3-1.1-6.4-2.7-8.9-5.2c-1.4-1.5-2.5-3.2-2.9-5.2C14.1,50.5,14.1,50.3,14.1,50z"/>
	<path class="st1" d="M14.1,35.7c0.8,0.7,1.5,1.5,2.3,2.1c2.6,2.2,5.7,3.7,8.9,4.7c5.5,1.8,11.1,2.3,16.8,1.7
		c3.6-0.3,7.1-1.1,10.5-2.5c3.2-1.3,6.1-3,8.4-5.6c0.1-0.1,0.1-0.1,0.2-0.2c0.1,0,0.1,0,0.2,0.1c-0.2,0.7-0.4,1.4-0.6,2.1
		c-0.9,2.1-2.4,3.7-4.2,5.1c-3.6,2.7-7.8,4.1-12.2,4.8c-2,0.3-4.1,0.5-6.2,0.5c-5.8,0-11.4-1-16.6-3.8c-2.4-1.3-4.4-2.9-5.9-5.2
		c-0.7-1-1.1-2.1-1.4-3.3C14.1,36.1,14.1,35.9,14.1,35.7z"/>
	<path class="st1" d="M14.1,42.9c0.8,0.7,1.5,1.4,2.3,2.1c2.5,2.1,5.4,3.5,8.4,4.5c4.6,1.6,9.4,2.2,14.2,2.1c4.8-0.1,9.5-1,13.9-2.8
		c3-1.3,5.8-3,8-5.5c0.1-0.1,0.1-0.1,0.2-0.2c0.1,0,0.1,0,0.2,0.1c-0.2,0.7-0.4,1.4-0.6,2.1c-0.8,2.1-2.3,3.7-4.1,5
		c-3.2,2.4-6.9,3.8-10.8,4.6c-4.5,0.9-9.1,1-13.7,0.4c-3.8-0.5-7.4-1.6-10.8-3.5C19,50.6,17,49,15.5,46.8c-0.6-1-1.1-2.1-1.3-3.3
		c0-0.1,0-0.2,0-0.3C14.1,43.1,14.1,43,14.1,42.9z"/>
	<path class="st1" d="M38,16.7c3.9,0,8.2,0.8,12.1,2.7c2,1,3.7,2.2,5,4c2.1,2.8,2.1,6.1-0.1,8.9c-1.7,2.2-4,3.5-6.5,4.5
		c-4.2,1.7-8.6,2.1-13.1,1.8c-3.5-0.2-6.8-1-10-2.6c-1.8-0.9-3.4-2-4.7-3.6c-2.7-3.1-2.6-7,0.3-10c2-2.1,4.4-3.4,7.1-4.3
		C31.4,17.1,34.2,16.7,38,16.7z M48.5,21.7c-0.9-0.9-1.5-1-2.5-0.3c-0.2,0.1-0.3,0.2-0.5,0.3c-0.2,0.1-0.4,0.1-0.5,0.1
		c-1-0.2-2.1-0.5-3.1-0.7c-2.3-0.2-4.5,0.2-6.4,1.6c-1.4,1-1.6,2.3-0.7,3.8c0.3,0.5,0.7,1,1.1,1.5c-1.6,1-3.1,2-4.8,3.1
		c-0.7-0.8-1.4-1.5-2.1-2.3c-0.3-0.3-0.5-0.4-0.9-0.3c-0.8,0.3-1.6,0.5-2.4,0.8c-0.6,0.2-0.7,0.4-0.2,0.9c0.6,0.6,1.2,1.1,1.8,1.6
		c0.4,0.3,0.9,0.6,1.4,1c-0.5,0.3-0.9,0.6-1.3,0.9c0.8,0.9,1.5,1,2.4,0.4c0.1-0.1,0.3-0.2,0.4-0.3c0.2-0.1,0.4-0.1,0.6-0.1
		c1.3,0.2,2.6,0.6,3.9,0.6c2,0.1,3.9-0.4,5.6-1.6c1.4-1,1.7-2.2,0.8-3.7c-0.3-0.6-0.7-1.1-1-1.7c1.4-0.9,2.8-1.8,4.2-2.7
		c0.1-0.1,0.5,0,0.6,0.1c0.5,0.5,1.1,1.1,1.5,1.7c0.2,0.3,0.4,0.4,0.8,0.3c0.6-0.2,1.2-0.3,1.8-0.5c1.3-0.4,1.4-0.6,0.4-1.5
		c-0.7-0.7-1.5-1.3-2.2-1.9C47.5,22.3,48,22,48.5,21.7z"/>
	<path class="st1" d="M36.9,29c0.8,1,0.6,1.8-0.3,2.4c-1.2,0.7-2.4,0.7-3.8,0.3C34.2,30.8,35.6,29.9,36.9,29z"/>
	<path class="st1" d="M42.9,23.6c-1.4,0.9-2.6,1.7-3.9,2.5c-0.9-0.8-0.8-1.7,0.2-2.3C40.4,23.1,41.6,23.2,42.9,23.6z"/>
</g>
</svg>
