<?xml version="1.0" encoding="utf-8"?>
<!-- Generator: Adobe Illustrator 26.3.0, SVG Export Plug-In . SVG Version: 6.00 Build 0)  -->
<svg version="1.1" id="Layer_1" xmlns="http://www.w3.org/2000/svg" xmlns:xlink="http://www.w3.org/1999/xlink" x="0px" y="0px"
	 viewBox="0 0 75 75.9" style="enable-background:new 0 0 75 75.9;" xml:space="preserve">
<style type="text/css">
	.st0{opacity:0.15;fill:#2F42FF;}
	.st1{fill:#2F42FF;}
</style>
<rect x="-0.5" y="-0.1" class="st0" width="76" height="76"/>
<path class="st1" d="M49.6,37.1c-0.7-0.1-1.3,0.1-1.8-0.2c-2.8-1.6-4.3-0.1-6.1,1.9c-6.1,6.7-12.3,13.3-18.6,19.8
	c-2.3,2.4-5.3,2.5-7.4,0.4c-2.2-2.1-2-5,0.5-7.4c6.9-6.5,13.8-13,20.8-19.4c1.4-1.3,1.9-2.6,1.1-4.4c-2.6-6.2,3.4-13.3,9.1-14.1
	c0.7-0.1,1.5-0.1,2.3,0.1c1,0.3,2.2,0.6,2.5,1.6c0.4,1-0.9,1.5-1.5,2.1c-0.8,0.9-1.6,1.7-2.5,2.5c-1.2,1-1.6,2-1,3.5
	c0.5,1.3-0.3,3.3,1.6,3.8c2.4,0.7,4.9,1.5,6.8-1.2c0.7-1,1.7-1.7,2.5-2.5c1.2-1.4,2-0.7,2.7,0.5c1.2,2.2,0.6,4.3-0.4,6.3
	C58,34.8,54.3,36.9,49.6,37.1z M19.4,53.4c-0.9,0.1-1.6,0.7-1.7,1.6c-0.1,1,0.5,1.7,1.4,1.8c1.1,0.2,1.8-0.6,1.8-1.6
	C21,54.3,20.3,53.7,19.4,53.4z"/>
</svg>
