<?xml version="1.0" encoding="utf-8"?>
<!-- Generator: Adobe Illustrator 26.3.0, SVG Export Plug-In . SVG Version: 6.00 Build 0)  -->
<svg version="1.1" id="Layer_1" xmlns="http://www.w3.org/2000/svg" xmlns:xlink="http://www.w3.org/1999/xlink" x="0px" y="0px"
	 viewBox="0 0 76 76" style="enable-background:new 0 0 76 76;" xml:space="preserve">
<style type="text/css">
	.st0{fill:#E0E3FF;}
	.st1{fill:none;}
	.st2{fill:#2F42FF;}
</style>
<rect class="st0" width="76" height="76"/>
<polyline class="st1" points="342,275 341.7,252.7 339.4,101.5 339,74 "/>
<g>
	<path class="st2" d="M57.6,29.5c0,1.1,0.1,2.3,0.1,3.4c0.1,1.7-0.5,3.2-1.7,4.4c-6.6,6.4-13,13-19.5,19.5c-1.1,1.1-2.2,2.2-3.4,3.4
		c-2.2,2.2-5.2,2.2-7.3,0c-3.4-3.4-6.8-6.8-10.3-10.2c-2.1-2.1-2.1-5.1,0-7.2c7.9-7.8,15.7-15.5,23.3-23.2c1.2-1.2,2.5-1.6,4.2-1.5
		c3,0.1,6.2,0.2,9.2,0.4c2.1,0.1,3.8,1,4.6,2.9c0.2,0.6,0.5,1.3,0.5,2.1C57.5,25.5,57.6,27.6,57.6,29.5L57.6,29.5z M38.7,41
		c0.6,0.4,1.3,0.7,2.1,1.1c0.1,0.1,0.4,0.1,0.5,0c0.5-0.5,1.1-1,1.7-1.6c-0.6-0.2-1-0.5-1.3-0.7c-2.5-1.3-5.1-2.7-7.8-4
		c-0.1-0.1-0.5-0.1-0.6,0c-0.6,0.5-1.2,1.1-1.7,1.7c-0.1,0.1-0.1,0.4-0.1,0.5c1.6,3,3.3,6.1,4.9,9.1c0.6-0.6,1.1-1.1,1.7-1.7
		c-0.4-0.7-0.8-1.6-1.2-2.3C37.4,42.3,38,41.6,38.7,41z M48,26.4c-0.8,0.8-1.7,1.8-2.5,2.7c-0.5-0.5-1-1-1.6-1.6
		c1-0.8,1.8-1.8,2.8-2.7c-0.5-0.5-0.8-1-1.2-1.3c-1.5,1.5-2.9,2.9-4.4,4.4c2.4,2.4,4.7,4.7,7.2,7.2c1.5-1.5,3-3,4.5-4.4
		c-0.4-0.5-0.7-0.8-1.2-1.5c-1,1-1.9,2.1-2.8,2.9c-0.6-0.6-1.2-1.1-1.8-1.7c0.8-0.8,1.7-1.7,2.7-2.5C49,27.2,48.5,26.9,48,26.4z
		 M30.9,51.8c1.7-0.7,3-1.8,3.8-3.6c0.2-0.5,0.2-1.1,0.2-1.6c-0.4-1.9-1.9-2.9-3.8-2.3c-0.7,0.2-1.5,0.6-2.1,0.8
		c-0.5,0.1-1,0.2-1.3-0.2c-0.4-0.5-0.1-1,0.2-1.3c0.2-0.2,0.5-0.6,0.8-0.7c0.4-0.2,0.7-0.5,1.2-0.7c-0.4-0.5-0.6-1.1-1-1.7
		c-1.6,0.7-2.8,1.7-3.4,3.3c-0.4,1-0.4,2.1,0.4,2.9c0.7,0.8,1.6,1.1,2.7,1c0.6-0.1,1.1-0.4,1.7-0.6c0.5-0.1,1-0.4,1.5-0.5
		c0.7-0.1,1.2,0.6,1,1.2c-0.2,0.5-0.5,0.8-0.8,1.2c-0.6,0.5-1.2,0.8-1.8,1.2C30.2,50.5,30.6,51.2,30.9,51.8z M43.6,37
		c-1.9-1.9-3.9-3.9-5.8-5.8c-0.6,0.6-1.1,1.1-1.6,1.6c2.4,2.4,4.7,4.7,7.2,7.2c1.5-1.5,2.9-2.9,4.4-4.4c-0.4-0.5-0.8-0.8-1.3-1.3
		C45.4,35,44.5,36,43.6,37z"/>
	<path class="st0" d="M38.7,41c-0.7,0.7-1.3,1.3-2.1,2.1c0.4,0.7,0.8,1.5,1.2,2.3c-0.6,0.6-1.1,1.1-1.7,1.7c-1.6-3-3.3-6.1-4.9-9.1
		c-0.1-0.1,0-0.4,0.1-0.5c0.6-0.6,1.1-1.2,1.7-1.7c0.1-0.1,0.5-0.1,0.6,0c2.5,1.3,5.1,2.7,7.8,4c0.4,0.2,0.8,0.5,1.3,0.7
		c-0.6,0.6-1.1,1.1-1.7,1.6c-0.1,0.1-0.4,0.1-0.5,0C40,41.7,39.4,41.3,38.7,41z M37.1,39.9c-1.2-0.7-2.4-1.3-3.6-2.1
		c0.7,1.2,1.5,2.4,2.1,3.5C36.1,40.8,36.6,40.3,37.1,39.9z"/>
	<path class="st0" d="M48,26.4c0.5,0.5,1,0.8,1.3,1.3c-0.8,0.8-1.8,1.7-2.7,2.5c0.6,0.6,1.2,1.2,1.8,1.7c0.8-0.8,1.8-1.8,2.8-2.9
		c0.5,0.5,0.8,1,1.2,1.5c-1.5,1.5-2.9,2.9-4.5,4.4c-2.3-2.3-4.7-4.7-7.2-7.2c1.5-1.5,2.9-2.9,4.4-4.4c0.4,0.4,0.7,0.8,1.2,1.3
		c-0.8,0.8-1.8,1.7-2.8,2.7c0.6,0.6,1,1.1,1.6,1.6C46.3,28.1,47.2,27.2,48,26.4z"/>
	<path class="st0" d="M30.9,51.8c-0.4-0.6-0.6-1.1-1-1.6c0.6-0.4,1.3-0.7,1.8-1.2c0.4-0.2,0.7-0.7,0.8-1.2c0.2-0.6-0.2-1.3-1-1.2
		c-0.5,0-1,0.2-1.5,0.5c-0.6,0.2-1.1,0.5-1.7,0.6c-1.1,0.2-1.9-0.1-2.7-1s-0.8-1.9-0.4-2.9c0.6-1.6,1.8-2.5,3.4-3.3
		c0.4,0.6,0.6,1.1,1,1.7c-0.4,0.2-0.8,0.5-1.2,0.7c-0.4,0.2-0.6,0.5-0.8,0.7c-0.4,0.4-0.6,0.8-0.2,1.3c0.4,0.5,0.8,0.4,1.3,0.2
		c0.7-0.2,1.5-0.6,2.1-0.8c1.8-0.6,3.5,0.4,3.8,2.3c0.1,0.5,0,1.1-0.2,1.6C34,49.8,32.6,50.9,30.9,51.8z"/>
	<path class="st0" d="M43.6,37c1-1,1.9-1.9,2.8-2.9c0.5,0.5,1,1,1.3,1.3c-1.5,1.5-2.9,2.9-4.4,4.4c-2.3-2.3-4.7-4.7-7.2-7.2
		c0.5-0.5,1-1,1.6-1.6C39.7,33.1,41.5,35,43.6,37z"/>
	<path class="st2" d="M37.1,39.9c-0.6,0.5-1.1,1-1.6,1.5c-0.6-1.1-1.3-2.3-2.1-3.5C34.8,38.5,35.9,39.3,37.1,39.9z"/>
</g>
</svg>
