<?xml version="1.0" encoding="utf-8"?>
<!-- Generator: Adobe Illustrator 26.3.0, SVG Export Plug-In . SVG Version: 6.00 Build 0)  -->
<svg version="1.1" id="Layer_1" xmlns="http://www.w3.org/2000/svg" xmlns:xlink="http://www.w3.org/1999/xlink" x="0px" y="0px"
	 viewBox="0 0 75 75.9" style="enable-background:new 0 0 75 75.9;" xml:space="preserve">
<style type="text/css">
	.st0{opacity:0.15;fill:#2F42FF;}
	.st1{fill:#2F42FF;}
</style>
<rect x="-0.5" y="-0.1" class="st0" width="76" height="76"/>
<g>
	<path class="st1" d="M49.9,38.3c1.4,0,2.6,0,3.9,0c2.9,0,5.1,2.2,5.1,5.1c0,1.5,0,3,0,4.5c0,3-2.1,5.1-5.1,5.2c-1.3,0-2.7,0-4.1,0
		c0,0.6,0,1.1,0,1.6c-0.1,2.1-1.8,4-3.8,4.3c-0.3,0.1-0.7,0.3-0.9,0.5c-1.6,2.2-3.7,2.8-6.3,2c-1.7-0.6-3.4-1.3-5.1-1.9
		c-1-0.3-2-0.5-3-0.6c-2.6-0.1-5.1,0-7.7,0c-1.6,0-2.8-0.8-3.7-2c-0.2-0.3-0.6-0.6-0.9-0.7c-2.1-0.9-3.2-3.1-2.8-5.4
		c0.9-4.8,1.9-9.6,2.8-14.4c0.2-0.9,0.1-1.8,0.1-2.7c0-4.6,0-9.3,0.1-13.9c0-2.2,1.7-3.9,3.9-4.3c0.3-0.1,0.7-0.4,0.9-0.6
		c1-1.3,2.2-2.3,3.9-2.3c1.2,0,2.3,0.4,3.5,0.7c0.6,0.1,1.2,0.4,1.7,0.7c2.3,1.2,4.8,1.8,7.5,1.6c1.7-0.1,3.4,0,5.1,0
		c1.8,0,3.1,0.7,4.2,2.1c0.2,0.3,0.5,0.5,0.8,0.6c2.2,1,3.3,3,2.8,5.4c-0.9,4.6-1.8,9.1-2.6,13.7C49.9,37.7,49.9,38,49.9,38.3z
		 M47.8,53.1c-0.3,0-0.6,0-0.9,0c-5.3,0-10.6,0-15.9,0c-2.5,0-4.6-1.9-4.8-4.3c-0.2-1.9-0.2-3.8-0.1-5.7c0.2-3,2.3-4.8,5.3-4.8
		c5.2,0,10.3,0,15.5,0c0.3,0,0.6,0,1,0c0-6,0-11.9,0-17.8c0-1.9-1.2-2.9-3.1-2.9c-7.2,0-14.3,0-21.5,0c-2,0-3.1,1.1-3.1,3.1
		c0,11.1,0,22.2,0,33.4c0,2.1,1.1,3.2,3.1,3.2c7,0,14.1-0.1,21.1,0C46.7,57.3,48.2,55.8,47.8,53.1z M42.4,51.3c3.7,0,7.4,0,11.1,0
		c2.2,0,3.6-1.4,3.6-3.6c0-1.3,0-2.6,0-3.9c0-2.3-1.3-3.7-3.7-3.7c-2,0-4.1,0-6.1,0c-5.3,0-10.6,0-15.9,0c-2.1,0-3.6,1.7-3.5,3.4
		c0.1,1.4,0,2.9,0,4.3c0,2.1,1.4,3.4,3.5,3.4C35,51.3,38.7,51.3,42.4,51.3z M18.3,54.3c0-2.8,0-5.4,0-8.1c-0.1,0.2-0.2,0.4-0.2,0.5
		c-0.3,1.6-0.7,3.3-0.9,4.9C16.9,52.6,17.3,53.5,18.3,54.3z M49.7,28.5c0,0,0.1,0,0.1,0c0.3-1.8,0.7-3.6,1-5.4
		c0.2-1.2-0.2-2-1.1-2.4C49.7,23.3,49.7,25.9,49.7,28.5z M25.2,15.7c1.9,0,3.7,0,5.5,0C28.9,14.6,26.4,14.4,25.2,15.7z M42.6,59.1
		c-1.8,0-3.4,0-5.2,0C39.4,60.1,41.5,60.3,42.6,59.1z"/>
	<path class="st1" d="M34,32.2c2.7,0,5.4,0,8.1,0c0.3,0,0.7,0,0.9,0.1c0.3,0.2,0.5,0.6,0.5,0.9c0,0.3-0.3,0.6-0.6,0.8
		c-0.3,0.1-0.6,0.1-1,0.1c-5.3,0-10.6,0-15.8,0c-1.3,0-1.7-0.3-1.7-1c0-0.7,0.4-1,1.7-1C28.7,32.2,31.4,32.2,34,32.2z"/>
	<path class="st1" d="M33.9,23.5c-2.7,0-5.3,0-8,0c-0.3,0-0.6,0.1-0.8-0.1c-0.3-0.3-0.7-0.6-0.7-1c0-0.3,0.4-0.6,0.8-0.8
		c0.3-0.1,0.6-0.1,1-0.1c5.2,0,10.5,0,15.7,0c0,0,0.1,0,0.1,0c0.7,0,1.5,0,1.5,0.9c0,0.7-0.5,1-1.5,1C39.3,23.5,36.6,23.5,33.9,23.5
		z"/>
	<path class="st1" d="M33.9,28.8c-2.8,0-5.6,0-8.4,0c-0.7,0-1.1-0.2-1.2-0.9c0-0.7,0.5-0.9,1.1-0.9c5.6,0,11.2,0,16.8,0
		c0.7,0,1.2,0.2,1.2,0.9c0,0.7-0.5,0.9-1.2,0.9C39.6,28.8,36.8,28.8,33.9,28.8z"/>
	<path class="st1" d="M53.4,42.1c-0.7,1.1-1.2,2-1.9,2.9c-0.4,0.5-0.3,0.8,0,1.3c0.7,0.9,1.3,1.9,1.9,2.9c-2,0.7-3-0.4-3.7-2.2
		c-0.5,0.7-0.8,1.3-1.2,1.9c-0.2,0.2-0.5,0.5-0.8,0.5c-1.2,0.1-2.5,0.1-3.7,0c-0.3,0-0.7-0.3-0.7-0.5c-0.1-0.5-0.3-0.6-0.8-0.6
		c-0.5,0-1,0-1.4,0c-0.2,0-0.5,0.2-0.5,0.3c-0.1,1-0.8,0.9-1.4,0.9c-0.3,0-0.7,0-1.1,0c0.4-1.1,0.8-2.2,1.2-3.2c0.4-1,0.9-2,1.1-3
		c0.2-1,0.9-0.9,1.6-0.9c0.8,0,1.3,0.1,1.6,1c0.7,2,1.5,4,2.3,6.2c0.8-1.3,1.6-2.4,2.3-3.5c0.1-0.2,0-0.5-0.2-0.7
		c-0.6-1-1.2-1.9-1.8-2.9c2.1-0.4,2.1-0.4,3.6,2.1c0.2-0.4,0.5-0.7,0.6-1.1c0.3-0.9,0.9-1.3,1.9-1.1C52.5,42.2,52.9,42.1,53.4,42.1z
		 M41.9,44.3c-0.1,0-0.1,0-0.2,0c-0.2,0.8-0.4,1.5-0.7,2.3c0.6,0,1,0,1.6,0C42.3,45.8,42.1,45,41.9,44.3z"/>
	<path class="st1" d="M36.1,49.3c-0.8,0-1.5,0-2.2,0c0-1.8,0-3.5,0-5.3c-0.8,0-1.5,0-2.3,0c0-0.6,0-1.2,0-1.8c2.2,0,4.4,0,6.7,0
		c0,0.5,0,1.1,0,1.7c-0.7,0-1.4,0-2.2,0C36.1,45.7,36.1,47.4,36.1,49.3z"/>
</g>
</svg>
