<?xml version="1.0" encoding="utf-8"?>
<!-- Generator: Adobe Illustrator 26.3.0, SVG Export Plug-In . SVG Version: 6.00 Build 0)  -->
<svg version="1.1" id="Layer_1" xmlns="http://www.w3.org/2000/svg" xmlns:xlink="http://www.w3.org/1999/xlink" x="0px" y="0px"
	 viewBox="0 0 76 76" style="enable-background:new 0 0 76 76;" xml:space="preserve">
<style type="text/css">
	.st0{fill:#E0E3FF;}
	.st1{fill:none;}
	.st2{fill:#2F42FF;}
</style>
<rect class="st0" width="76" height="76"/>
<polyline class="st1" points="342,275 341.7,252.7 339.4,101.5 339,74 "/>
<g>
	<path class="st2" d="M28.1,29.1v3.5h-4.7v14.3h-4.3V32.6h-4.7v-3.5H28.1z"/>
	<path class="st2" d="M41.9,30.1c1.4,0.8,2.5,1.8,3.3,3.1c0.8,1.3,1.2,2.9,1.2,4.7c0,1.7-0.4,3.3-1.2,4.7c-0.8,1.3-1.8,2.5-3.3,3.1
		c-1.4,0.7-3,1.2-4.9,1.2h-6.6V29.1h6.6C38.8,29.1,40.4,29.5,41.9,30.1z M40.4,41.8c0.9-0.9,1.4-2.2,1.4-3.8c0-1.6-0.5-2.9-1.4-3.9
		c-0.9-0.9-2.2-1.4-3.8-1.4h-2.1v10.4h2.1C38.2,43.1,39.5,42.8,40.4,41.8z"/>
	<path class="st2" d="M51.6,46.4c-1-0.4-1.8-1-2.5-1.8c-0.7-0.8-0.9-1.8-1-3h4.7c0.1,0.7,0.3,1.2,0.7,1.6c0.4,0.4,0.9,0.5,1.6,0.5
		c0.7,0,1.2-0.1,1.6-0.4s0.5-0.7,0.5-1.2c0-0.4-0.1-0.8-0.4-1c-0.3-0.3-0.7-0.5-1-0.7c-0.4-0.1-1-0.4-1.8-0.7
		c-1.2-0.4-2.1-0.7-2.9-1c-0.8-0.4-1.3-0.9-1.8-1.6c-0.5-0.7-0.8-1.6-0.8-2.7c0-1.7,0.7-3,1.8-3.9c1.2-0.9,2.7-1.4,4.7-1.4
		c2,0,3.5,0.5,4.8,1.4c1.2,0.9,1.8,2.2,2,3.9H57c0-0.5-0.3-1-0.7-1.3c-0.4-0.3-0.9-0.5-1.6-0.5c-0.5,0-0.9,0.1-1.3,0.4
		c-0.3,0.3-0.5,0.7-0.5,1.2c0,0.5,0.3,1,0.8,1.3s1.4,0.7,2.6,1s2.1,0.8,2.9,1.2c0.8,0.4,1.3,0.9,1.8,1.6c0.5,0.7,0.8,1.6,0.8,2.6
		s-0.3,2-0.8,2.7c-0.5,0.8-1.3,1.4-2.2,2c-1,0.5-2.1,0.8-3.5,0.8C53.8,47,52.7,46.9,51.6,46.4z"/>
</g>
</svg>
